<svg width="179" height="31" viewBox="0 0 179 31" fill="none" xmlns="http://www.w3.org/2000/svg">
<path d="M173.656 30.2399L172.496 24.8944H164.456C163.975 25.7368 163.453 26.6342 162.877 27.5868C162.301 28.5394 161.779 29.4211 161.298 30.2399H155.999L169.7 7.30688H173.783L179.01 30.2399H173.656ZM170.695 13.849L166.707 21.0682H171.926L170.695 13.849Z" fill="#277E8E"/>
<path d="M75.7046 22.9023C75.0149 25.1605 73.6103 27.1353 71.7009 28.5313C69.5038 29.9947 66.8938 30.7177 64.2543 30.5939C62.5611 30.6691 60.8751 30.3313 59.3425 29.6098C58.1757 29.0279 57.2043 28.1196 56.5471 26.9961C55.8993 25.8385 55.5417 24.5422 55.5047 23.2172C55.4482 21.7038 55.5754 20.1891 55.8837 18.7062C56.1799 17.1864 56.6324 15.7012 57.2341 14.2739C57.8184 12.8775 58.6503 11.5974 59.69 10.495C60.7693 9.36607 62.0703 8.471 63.512 7.86555C65.2524 7.1687 67.1174 6.83382 68.9923 6.88147C71.9299 6.88147 74.091 7.54803 75.4756 8.88115C76.1727 9.58117 76.7115 10.4217 77.0561 11.3464C77.4007 12.271 77.5429 13.2584 77.4735 14.2424H72.3169C72.2021 13.3681 71.7728 12.5652 71.1086 11.9829C70.3012 11.3456 69.2858 11.0287 68.2579 11.0934H67.8789C66.9157 11.0658 65.9606 11.2767 65.0992 11.7074C64.3361 12.1169 63.6645 12.6766 63.125 13.3528C62.5606 14.0654 62.1129 14.8625 61.7984 15.7145C61.4621 16.6268 61.198 17.5639 61.0087 18.5173C60.8233 19.4199 60.7124 20.3362 60.6771 21.2569C60.6273 22.0765 60.74 22.8977 61.0087 23.6738C61.2478 24.3722 61.7042 24.9762 62.3117 25.3979C63.0838 25.8771 63.9861 26.1054 64.8939 26.0513H65.4388C66.5142 26.0869 67.5697 25.7565 68.4317 25.1145C69.2083 24.5268 69.8403 23.7702 70.2795 22.9023H75.7046Z" fill="#277E8E"/>
<path d="M97.926 12.2901H86.0176L85.1173 16.7617H96.2603L95.3203 21.2412H84.1621L83.0641 26.4608H95.2964L94.3643 30.1845H76.6444L81.5009 7.0705H98.874L97.926 12.2901Z" fill="#277E8E"/>
<path d="M90.9845 0.575562L87.4157 5.05509L92.7225 5.03934L97.1995 0.599179L90.9845 0.575562Z" fill="#9DC3CA"/>
<path d="M101.061 6.95239H106.249L102.562 25.6656H113.19L112.306 30.1531H96.5128L101.061 6.95239Z" fill="#277E8E"/>
<path d="M132.032 6.90515L131.195 11.4713H123.954L120.472 30.5074H115.575L119.073 11.4713H111.809L112.646 6.90515H132.032Z" fill="#277E8E"/>
<path d="M137.947 6.97589L133.627 30.4206H128.684L133.003 6.97589H137.947Z" fill="#277E8E"/>
<path d="M158.083 22.9023C157.35 25.1941 155.889 27.1862 153.922 28.5784C151.948 29.964 149.37 30.6568 146.191 30.6568C144.436 30.7317 142.688 30.3918 141.09 29.6648C139.884 29.0858 138.874 28.1694 138.184 27.0275C137.515 25.8684 137.146 24.5617 137.11 23.225C137.044 21.698 137.175 20.1689 137.497 18.6747C137.808 17.1445 138.279 15.6511 138.902 14.2187C139.512 12.8061 140.373 11.5151 141.445 10.4084C142.569 9.26784 143.911 8.36542 145.394 7.75527C147.205 7.05726 149.137 6.72283 151.079 6.77119C154.138 6.77119 156.383 7.44036 157.815 8.77875C158.534 9.47405 159.093 10.3175 159.452 11.2503C159.811 12.1831 159.961 13.1828 159.892 14.1793H153.898C153.669 13.5138 153.312 12.8989 152.848 12.3687C152.256 11.8647 150.353 11.9986 150.353 11.9986H149.871C148.955 11.9712 148.047 12.1686 147.225 12.5733C146.503 12.9458 145.864 13.4599 145.346 14.0849C144.814 14.7405 144.39 15.4767 144.091 16.2656C143.755 17.1054 143.49 17.9718 143.301 18.8557C143.124 19.6903 143.019 20.5383 142.985 21.3907C142.939 22.147 143.047 22.9047 143.301 23.6186C143.535 24.2618 143.97 24.8134 144.541 25.1931C145.278 25.6387 146.135 25.8501 146.997 25.7993H147.501C148.522 25.8326 149.524 25.5281 150.353 24.9333C151.085 24.3925 151.685 23.6925 152.106 22.8865L158.083 22.9023Z" fill="#277E8E"/>
<path d="M81.343 7.82633L81.5009 7.07843H98.8581L97.934 12.298L94.3564 12.2901L81.343 7.82633Z" fill="#9DC3CA"/>
<path d="M99.5289 14.7306L104.37 16.494L106.258 6.95239H101.069L99.5289 14.7306Z" fill="#9DC3CA"/>
<path d="M120.788 23.0598L121.917 22.6347L123.962 11.4792H131.195L132.032 6.90515H112.654L111.817 11.4792H119.058L117.194 21.6506L120.788 23.0598Z" fill="#9DC3CA"/>
<path d="M130.753 19.2098L136.06 17.1708L137.947 6.98364H133.003L130.753 19.2098Z" fill="#9DC3CA"/>
<path d="M138.381 15.5653L157.768 8.7319C155.77 6.51965 141.88 3.22101 138.381 15.5653Z" fill="#9DC3CA"/>
<path d="M0.726025 17.4191L26.3732 30.6362L51.3453 17.7065C51.3453 17.7065 43.5837 4.77679 26.3732 4.77679C9.16258 4.77679 0.726025 17.4191 0.726025 17.4191Z" fill="#7DB5C0"/>
<path d="M26.3732 4.77679V30.6362L51.3453 17.7065C43.5837 6.19907 31.435 4.77679 26.3732 4.77679Z" fill="#3891A2"/>
<path d="M26.3732 24.5876L0.726025 17.4045L26.3732 30.6215V24.5876Z" fill="#539FAD"/>
<path d="M51.3453 17.6923L26.3732 30.6219V17.6923H51.3453Z" fill="#2D8190"/>
</svg>
